<svg id="Camada_1" data-name="Camada 1" xmlns="http://www.w3.org/2000/svg" viewBox="0 0 50 50"><defs><style>.cls-1{fill:#4267b2;}.cls-2{fill:#fff;}</style></defs><rect class="cls-1" width="50" height="50"/><path class="cls-1" d="M2.5,25A22.5,22.5,0,1,1,25,47.5,22.52,22.52,0,0,1,2.5,25Zm28.81-4-.69,0c-1,0-2,0-3,0-.31,0-.46-.09-.45-.42,0-.69,0-1.37,0-2.06a1.77,1.77,0,0,1,1.65-1.82,21.62,21.62,0,0,1,2.28-.08c.24,0,.37-.07.36-.34,0-1.31,0-2.62,0-3.92a.43.43,0,0,0-.28-.33,14.1,14.1,0,0,0-5.64.26,4.84,4.84,0,0,0-3.63,4.42,33.12,33.12,0,0,0-.09,3.73c0,.46-.15.59-.59.57-.71,0-1.43,0-2.14,0-.3,0-.42.1-.41.4,0,1.2,0,2.4,0,3.59,0,.32.1.45.42.44.69,0,1.37,0,2.06,0s.65,0,.65.67V39.37c0,.59,0,.6.61.6h4.07c.66,0,.67,0,.67-.7q0-6.69,0-13.39c0-.4.11-.55.52-.54.84,0,1.68,0,2.52,0,.29,0,.42-.1.45-.4.05-.46.16-.91.24-1.37C31,22.73,31.15,21.87,31.31,21Z"/><path class="cls-2" d="M31.31,21c-.16.92-.3,1.78-.44,2.63-.08.46-.19.91-.24,1.37,0,.3-.16.4-.45.4-.84,0-1.68,0-2.52,0-.41,0-.52.14-.52.54q0,6.71,0,13.39c0,.7,0,.7-.67.7H22.41c-.61,0-.61,0-.61-.6V26c0-.67,0-.67-.65-.67s-1.37,0-2.06,0c-.32,0-.43-.12-.42-.44,0-1.19,0-2.39,0-3.59,0-.3.11-.41.41-.4.71,0,1.43,0,2.14,0,.44,0,.59-.11.59-.57a33.12,33.12,0,0,1,.09-3.73,4.84,4.84,0,0,1,3.63-4.42A14.1,14.1,0,0,1,31.17,12a.43.43,0,0,1,.28.33c0,1.3,0,2.61,0,3.92,0,.27-.12.33-.36.34a21.62,21.62,0,0,0-2.28.08,1.77,1.77,0,0,0-1.65,1.82c0,.69,0,1.37,0,2.06,0,.33.14.42.45.42,1,0,2,0,3,0Z"/></svg>