<?xml version="1.0" encoding="utf-8"?>
<!-- Generator: Adobe Illustrator 26.0.0, SVG Export Plug-In . SVG Version: 6.00 Build 0)  -->
<svg version="1.1" xmlns="http://www.w3.org/2000/svg" xmlns:xlink="http://www.w3.org/1999/xlink" x="0px" y="0px"
	 viewBox="0 0 40 40" style="enable-background:new 0 0 40 40;" xml:space="preserve">
<style type="text/css">
	.st0{fill:#FFFFFF;}
	.st1{fill:#FFC107;}
	.st2{fill:#FF3D00;}
	.st3{fill:#4CAF50;}
	.st4{fill:#1976D2;}
</style>
<g id="Camada_2">
	<rect class="st0" width="40" height="40"/>
</g>
<g id="Camada_1">
	<g>
		<path class="st1" d="M36.1,16.8h-1.3v-0.1H20v6.6h9.3c-1.8,5.1-7.5,7.8-12.6,6s-7.8-7.5-6-12.6s7.5-7.8,12.6-6
			c1.2,0.4,2.3,1.1,3.2,1.9L31.2,8C24.6,1.7,14.2,2.1,8,8.7S2.1,25.8,8.8,32s17.1,5.9,23.3-0.8c2.8-3,4.4-7,4.4-11.2
			C36.5,18.9,36.3,17.9,36.1,16.8z"/>
		<path class="st2" d="M5.4,12.4l5.4,4c2-5.1,7.8-7.5,12.8-5.5c1.1,0.4,2,1,2.9,1.8L31.2,8C24.6,1.8,14.2,2.1,8,8.8
			C7,9.9,6.1,11.1,5.4,12.4z"/>
		<path class="st3" d="M20,36.5c4.1,0,8-1.5,11-4.3l-5.1-4.3c-4.4,3.3-10.6,2.4-13.8-2c-0.6-0.8-1.1-1.7-1.4-2.6l-5.4,4.1
			C8.2,33,13.8,36.5,20,36.5z"/>
		<path class="st4" d="M36.1,16.8h-1.3v-0.1H20v6.6h9.3c-0.6,1.8-1.8,3.4-3.4,4.6l0,0l5.1,4.3c3.5-3.1,5.5-7.5,5.4-12.2
			C36.5,18.9,36.3,17.9,36.1,16.8z"/>
	</g>
</g>
</svg>
